<svg width="362" height="455" viewBox="0 0 362 455" fill="none" xmlns="http://www.w3.org/2000/svg">
<path d="M106.388 444.584C106.279 445.432 105.543 446.091 104.743 446.056L91.7073 445.476C90.9073 445.441 90.3467 444.724 90.4551 443.876C90.5635 443.027 91.2998 442.368 92.0997 442.404L103.687 442.919L105.257 430.631C105.366 429.783 106.102 429.124 106.902 429.159C107.702 429.195 108.262 429.911 108.154 430.76L106.388 444.584ZM103.776 445.56C66.0722 397.37 50.6382 362.307 49.1051 336.285C48.3355 323.224 51.0678 312.421 56.2531 303.424C61.4272 294.447 68.9786 287.379 77.6926 281.667C95.0652 270.279 117.378 264.09 135.549 258.935C144.697 256.34 152.751 254.02 158.748 251.445C161.744 250.157 164.135 248.844 165.859 247.462C167.579 246.084 168.514 244.738 168.845 243.391L171.672 243.895C171.096 246.242 169.55 248.193 167.489 249.844C165.433 251.492 162.743 252.94 159.632 254.277C153.413 256.948 145.148 259.321 136.061 261.899C117.764 267.09 95.951 273.168 79.0673 284.235C70.6533 289.75 63.544 296.456 58.7158 304.834C53.8988 313.192 51.2872 323.325 52.0229 335.814C53.5005 360.892 68.4742 395.386 106.102 443.479L103.776 445.56ZM168.845 243.391C169.551 240.514 168.347 237.513 165.012 234.293C161.706 231.101 156.602 227.998 150.355 224.97C137.869 218.916 121.288 213.37 106.56 208.002C99.2226 205.327 92.3471 202.696 86.7332 200.08C81.1699 197.488 76.6557 194.828 74.2081 192.026C72.9752 190.615 72.1262 189.011 72.1109 187.209C72.0951 185.344 72.9722 183.617 74.4874 182.078C75.9767 180.565 78.1639 179.14 81.0345 177.76C83.9218 176.372 87.5904 174.988 92.1171 173.596L92.6917 176.542C88.2514 177.907 84.7388 179.239 82.039 180.537C79.3225 181.843 77.5165 183.072 76.415 184.191C75.3394 185.284 75.0279 186.167 75.0341 186.897C75.0409 187.692 75.4245 188.669 76.4429 189.835C78.4981 192.187 82.5619 194.66 88.1182 197.249C93.6237 199.815 100.409 202.413 107.74 205.085C122.349 210.411 139.135 216.027 151.776 222.156C158.092 225.218 163.491 228.462 167.094 231.941C170.668 235.392 172.779 239.385 171.672 243.895L168.845 243.391ZM92.1171 173.596C128.075 162.544 202.45 141.479 251.492 113.144C263.736 106.069 274.332 98.5793 282.332 90.7303C290.339 82.8754 295.646 74.7611 297.513 66.4334C301.208 49.949 291.583 31.3973 258.857 11.256L260.502 8.56482C293.32 28.7629 304.525 48.2697 300.355 66.8709C298.289 76.0861 292.489 84.7714 284.218 92.8865C275.94 101.008 265.085 108.658 252.711 115.808C203.277 144.369 128.469 165.545 92.6917 176.542L92.1171 173.596Z" fill="url(#paint0_linear_784_72817)"/>
<defs>
<linearGradient id="paint0_linear_784_72817" x1="71.2749" y1="261.86" x2="330.374" y2="210.185" gradientUnits="userSpaceOnUse">
<stop stop-color="#AB83FE"/>
<stop offset="1" stop-color="#FBAE96"/>
</linearGradient>
</defs>
</svg>
